<svg width="800px" height="800px" viewBox="0 0 24 24" fill="none" xmlns="http://www.w3.org/2000/svg">
  <circle cx="12" cy="12" r="10" stroke="#000" stroke-width="2" />
  <g id="SVGRepo_iconCarrier" transform="scale(0.55) translate(10, 10)" stroke-width="2" stroke="#000"
    stroke-linecap="round">
    <path d="M4 18V6" />
    <path d="M20 18V6" />
    <path
      d="M12 10C16.4183 10 20 8.20914 20 6C20 3.79086 16.4183 2 12 2C7.58172 2 4 3.79086 4 6C4 8.20914 7.58172 10 12 10Z" />
    <path d="M20 12C20 14.2091 16.4183 16 12 16C7.58172 16 4 14.2091 4 12" />
    <path d="M20 18C20 20.2091 16.4183 22 12 22C7.58172 22 4 20.2091 4 18" />
  </g>
</svg>